<svg version="1.2" xmlns="http://www.w3.org/2000/svg" viewBox="0 0 1024 682" width="1024" height="682">
	<title>Flag_of_sheba_Region_(Yemen)-svg</title>
	<style>
		.s0 { fill: #e1c901;stroke: #000000;stroke-opacity: 0;stroke-width: 1 } 
		.s1 { fill: #029540;stroke: #000000;stroke-opacity: 0;stroke-width: 1 } 
	</style>
	<path id="path_rsquare" class="s0" d="m750.4 24.4c0-1.3 1.1-2.4 2.4-2.4h72.4c1.3 0 2.4 1.1 2.4 2.4v72.4c0 1.3-1.1 2.4-2.4 2.4h-72.4c-1.3 0-2.4-1.1-2.4-2.4z"/>
	<path id="path_rect" class="s0" d="m750.2 91.2h77.2v154.4h-77.2z"/>
	<path id="path_rect" class="s0" d="m750.5 225.9h77.2v154.4h-77.2z"/>
	<path id="path_rect" class="s0" d="m750.4 379.2h77.2v154.4h-77.2z"/>
	<path id="path_rsquare" class="s0" d="m750.8 583.8c0-1.4 1.1-2.4 2.4-2.4h72.4c1.3 0 2.4 1 2.4 2.4v72.3c0 1.4-1.1 2.4-2.4 2.4h-72.4c-1.3 0-2.4-1-2.4-2.4z"/>
	<path id="path_rect" class="s0" d="m750.3 460.3h77.2v154.4h-77.2z"/>
	<path id="path_rsquare" class="s0" d="m640.7 26.5c0-1.3 1.1-2.4 2.4-2.4h72.4c1.3 0 2.4 1.1 2.4 2.4v72.4c0 1.3-1.1 2.4-2.4 2.4h-72.4c-1.3 0-2.4-1.1-2.4-2.4z"/>
	<path id="path_rect" class="s0" d="m640.6 93.3h77.2v154.4h-77.2z"/>
	<path id="path_rect" class="s0" d="m640.8 228h77.2v154.4h-77.2z"/>
	<path id="path_rect" class="s0" d="m640.8 381.3h77.2v154.3h-77.2z"/>
	<path id="path_rsquare" class="s0" d="m641.1 585.8c0-1.3 1.1-2.4 2.4-2.4h72.4c1.4 0 2.4 1.1 2.4 2.4v72.4c0 1.4-1 2.4-2.4 2.4h-72.4c-1.3 0-2.4-1-2.4-2.4z"/>
	<path id="path_rect" class="s0" d="m640.7 462.4h77.2v154.4h-77.2z"/>
	<path id="path_rsquare" class="s0" d="m527.6 24.9c0-1.4 1.1-2.4 2.4-2.4h72.4c1.3 0 2.4 1 2.4 2.4v72.3c0 1.4-1.1 2.4-2.4 2.4h-72.4c-1.3 0-2.4-1-2.4-2.4z"/>
	<path id="path_rect" class="s0" d="m527.4 91.7h77.2v154.4h-77.2z"/>
	<path id="path_rect" class="s0" d="m527.7 226.4h77.2v154.3h-77.2z"/>
	<path id="path_rect" class="s0" d="m527.6 379.6h77.2v154.4h-77.2z"/>
	<path id="path_rsquare" class="s0" d="m528 584.2c0-1.3 1.1-2.4 2.4-2.4h72.4c1.3 0 2.4 1.1 2.4 2.4v72.4c0 1.3-1.1 2.4-2.4 2.4h-72.4c-1.3 0-2.4-1.1-2.4-2.4z"/>
	<path id="path_rect" class="s0" d="m527.6 460.7h77.2v154.4h-77.2z"/>
	<path id="path_rsquare" class="s0" d="m417.9 26.6c0-1.3 1-2.4 2.4-2.4h72.4c1.3 0 2.4 1.1 2.4 2.4v72.4c0 1.3-1.1 2.4-2.4 2.4h-72.4c-1.4 0-2.4-1.1-2.4-2.4z"/>
	<path id="path_rect" class="s0" d="m417.7 93.4h77.2v154.4h-77.2z"/>
	<path id="path_rect" class="s0" d="m417.9 228.1h77.2v154.4h-77.2z"/>
	<path id="path_rect" class="s0" d="m417.9 381.4h77.2v154.4h-77.2z"/>
	<path id="path_rsquare" class="s0" d="m418.3 586c0-1.4 1.1-2.4 2.4-2.4h72.4c1.3 0 2.4 1 2.4 2.4v72.4c0 1.3-1.1 2.4-2.4 2.4h-72.4c-1.3 0-2.4-1.1-2.4-2.4z"/>
	<path id="path_rect" class="s0" d="m417.8 462.5h77.2v154.4h-77.2z"/>
	<path id="path_rsquare" class="s0" d="m305.8 25c0-1.3 1.1-2.4 2.4-2.4h72.4c1.3 0 2.4 1.1 2.4 2.4v72.4c0 1.3-1.1 2.4-2.4 2.4h-72.4c-1.3 0-2.4-1.1-2.4-2.4z"/>
	<path id="path_rect" class="s0" d="m305.7 91.8h77.1v154.4h-77.1z"/>
	<path id="path_rect" class="s0" d="m305.9 226.5h77.2v154.4h-77.2z"/>
	<path id="path_rect" class="s0" d="m305.8 379.8h77.2v154.3h-77.2z"/>
	<path id="path_rsquare" class="s0" d="m306.2 584.3c0-1.3 1.1-2.4 2.4-2.4h72.4c1.4 0 2.4 1.1 2.4 2.4v72.4c0 1.4-1 2.4-2.4 2.4h-72.4c-1.3 0-2.4-1-2.4-2.4z"/>
	<path id="path_rect" class="s0" d="m305.8 460.9h77.2v154.4h-77.2z"/>
	<path id="path_rsquare" class="s0" d="m195 433.3c0-1.4 1.1-2.4 2.4-2.4h72.4c1.3 0 2.4 1 2.4 2.4v72.4c0 1.3-1.1 2.4-2.4 2.4h-72.4c-1.3 0-2.4-1.1-2.4-2.4z"/>
	<path id="path_rect" class="s0" d="m195.6 497h77.2v154.4h-77.2z"/>
	<path id="path_rsquare" class="s0" d="m195.1 585.9c0-1.3 1.1-2.4 2.4-2.4h72.4c1.3 0 2.4 1.1 2.4 2.4v72.4c0 1.3-1.1 2.4-2.4 2.4h-72.4c-1.3 0-2.4-1.1-2.4-2.4z"/>
	<path id="path_square" class="s1" d="m415.7 795.4v1020h-1020v-1020z"/>
</svg>