<svg id="Layer_1" data-name="Layer 1" xmlns="http://www.w3.org/2000/svg" xmlns:xlink="http://www.w3.org/1999/xlink" viewBox="0 0 100 75"><defs><style>.cls-1{fill:#80bc00;}</style><symbol id="A" data-name="A" viewBox="0 0 64 64"><path class="cls-1" d="M47.2,48.9A22.71,22.71,0,0,1,16.82,15.14c2.12-1.91,3.92-2.83,5.5-2.83,3.07,0,5.37,3.43,8.33,7.76A68.61,68.61,0,0,0,36.56,28a70.17,70.17,0,0,0,7.2,6.7c3.81,3.21,6.8,5.73,6.85,8.56,0,1.71-1.1,3.58-3.42,5.68ZM37.3,35.28a35.38,35.38,0,0,1-4.1-3.74A37.26,37.26,0,0,1,29.85,27c-1.52-2.3-2.59-3.94-4-3.94a2,2,0,0,0-1.35.6A11.25,11.25,0,0,0,39.53,40.37a2,2,0,0,0,.77-1.53c-.08-1.15-1.28-2.16-3-3.55ZM32,64a32,32,0,1,1,22.63-9.38A32,32,0,0,1,32,64ZM52.2,13.85a27.38,27.38,0,1,0,.54.61Z"/></symbol></defs><use width="64" height="64" transform="matrix(0.84, 0, 0, -0.84, 23, 65)" xlink:href="#A"/><use width="64" height="64" transform="matrix(0.84, 0, 0, -0.84, 24, 65)" xlink:href="#A"/></svg>