<svg id="Layer_1" data-name="Layer 1" xmlns="http://www.w3.org/2000/svg" viewBox="0 0 100 75"><defs><style>.cls-1{fill:#599636;}.cls-2{fill:#6cac48;}.cls-3{fill:#c2bfbf;}</style></defs><path class="cls-1" d="M49.82,9.36l1.54,2.9a8.74,8.74,0,0,0,1.17,1.45,39.16,39.16,0,0,1,3.62,4.1A35.57,35.57,0,0,1,61.8,29.19,28.57,28.57,0,0,1,63,36.91,27.31,27.31,0,0,1,55,57a23.42,23.42,0,0,1-2.84,2.42c-.54,0-.79-.41-1-.78a6.53,6.53,0,0,1-.79-2.27,10.66,10.66,0,0,1-.25-2.87v-.44c0-.1-.52-43.51-.33-43.73Z"/><path class="cls-2" d="M49.82,9.26c-.06-.12-.13,0-.19,0A2.89,2.89,0,0,1,49.09,11a8.25,8.25,0,0,1-1.38,1.39,30.19,30.19,0,0,0-6.78,8.64A34.8,34.8,0,0,0,37,35.18a46.54,46.54,0,0,0,1.14,10A30.24,30.24,0,0,0,46.07,57.6,35.63,35.63,0,0,0,48.87,60c.29,0,.32-.25.38-.44a8.46,8.46,0,0,0,.29-1.23l.63-4.73Z"/><path class="cls-3" d="M51.36,61.38a4.38,4.38,0,0,1,.79-1.93,1.94,1.94,0,0,1-.88-.82,5.72,5.72,0,0,1-.47-1,17.65,17.65,0,0,1-.66-4.06v-.82c-.16.12-.19,1.2-.19,1.35a30.49,30.49,0,0,1-.57,4.26A3.74,3.74,0,0,1,48.87,60a.64.64,0,0,0,0,.22,18.5,18.5,0,0,1,.82,5.11v.63c0,.76,0,.6.6.85a2.92,2.92,0,0,1,.79.32c.19,0,.22-.16.22-.29l-.09-1v-2.9a7.16,7.16,0,0,1,.12-1.48Z"/></svg>